<svg xmlns="http://www.w3.org/2000/svg" viewBox="0 0 100 100" fill="none">
  <defs>
    <!-- Professional Teal/Green Gradient for Chat (Data/Fresh) -->
    <linearGradient id="gradChat" x1="0%" y1="0%" x2="100%" y2="100%">
      <stop offset="0%" stop-color="#36cfc9" />
      <stop offset="100%" stop-color="#08979c" />
    </linearGradient>
    
    <!-- Deep Blue for Table (Structure/Enterprise) -->
    <linearGradient id="gradTable" x1="0%" y1="0%" x2="100%" y2="100%">
      <stop offset="0%" stop-color="#2f54eb" />
      <stop offset="100%" stop-color="#10239e" />
    </linearGradient>
  </defs>

  <!-- Chat Bubble (Input) -->
  <path d="M10 30 Q10 10 30 10 H 50 Q 70 10 70 30 V 40 Q 70 60 50 60 H 30 L 10 75 V 30 Z" fill="url(#gradChat)" opacity="0.95"/>
  
  <!-- "SQL" lines instead of text - more abstract and cleaner -->
  <path d="M25 30 H 55" stroke="white" stroke-width="4" stroke-linecap="round"/>
  <path d="M25 42 H 45" stroke="white" stroke-width="4" stroke-linecap="round"/>

  <!-- Transition Arrow -->
  <path d="M62 50 L78 50 L73 45 M78 50 L73 55" stroke="#595959" stroke-width="3" stroke-linecap="round"/>

  <!-- Data Table (Output) -->
  <g transform="translate(45, 45)">
    <rect x="0" y="0" width="50" height="40" rx="4" fill="white" stroke="url(#gradTable)" stroke-width="2"/>
    <!-- Header -->
    <rect x="4" y="4" width="42" height="10" rx="2" fill="url(#gradTable)" opacity="0.9"/>
    
    <!-- Rows -->
    <g fill="#f0f5ff">
        <rect x="5" y="19" width="18" height="4" rx="1"/>
        <rect x="27" y="19" width="18" height="4" rx="1"/>
        <rect x="5" y="27" width="18" height="4" rx="1"/>
        <rect x="27" y="27" width="18" height="4" rx="1"/>
        <rect x="5" y="35" width="18" height="4" rx="1"/>
        <rect x="27" y="35" width="18" height="4" rx="1"/>
    </g>
  </g>
</svg>
