<svg xmlns="http://www.w3.org/2000/svg" viewBox="0 0 100 100" fill="none">
  <defs>
    <linearGradient id="gradChat" x1="0%" y1="0%" x2="100%" y2="100%">
      <stop offset="0%" stop-color="#b37feb" />
      <stop offset="100%" stop-color="#722ed1" />
    </linearGradient>
    <linearGradient id="gradTable" x1="0%" y1="0%" x2="100%" y2="100%">
      <stop offset="0%" stop-color="#4096ff" />
      <stop offset="100%" stop-color="#096dd9" />
    </linearGradient>
  </defs>

  <!-- Chat Bubble (Input) -->
  <path d="M10 30 Q10 10 30 10 H 50 Q 70 10 70 30 V 40 Q 70 60 50 60 H 30 L 10 75 V 30 Z" fill="url(#gradChat)" opacity="0.9"/>
  <text x="25" y="42" font-family="monospace" font-size="24" fill="white" font-weight="bold">Hi</text>

  <!-- Transition Arrow -->
  <path d="M60 50 L80 50 L75 45 M80 50 L75 55" stroke="#333" stroke-width="3" stroke-linecap="round"/>

  <!-- Data Table (Output) -->
  <g transform="translate(45, 45)">
    <rect x="0" y="0" width="50" height="40" rx="4" fill="white" stroke="url(#gradTable)" stroke-width="2"/>
    <rect x="5" y="5" width="40" height="8" rx="2" fill="url(#gradTable)" opacity="0.8"/>
    <rect x="5" y="17" width="18" height="4" rx="1" fill="#e6f7ff"/>
    <rect x="27" y="17" width="18" height="4" rx="1" fill="#e6f7ff"/>
    <rect x="5" y="25" width="18" height="4" rx="1" fill="#e6f7ff"/>
    <rect x="27" y="25" width="18" height="4" rx="1" fill="#e6f7ff"/>
    <rect x="5" y="33" width="18" height="4" rx="1" fill="#e6f7ff"/>
    <rect x="27" y="33" width="18" height="4" rx="1" fill="#e6f7ff"/>
  </g>
</svg>
